<svg viewBox="0 0 240 120" fill="none" xmlns="http://www.w3.org/2000/svg">
<path d="M189.12 119.996C203.564 104.301 212.316 83.7426 212.316 61.2361C212.316 37.5296 202.604 15.9829 186.756 0.00390625H50.3598C34.5118 15.9829 24.7998 37.5296 24.7998 61.2361C24.7998 83.7426 33.5518 104.297 47.9958 119.996H189.12Z" fill="url(#paint0_radial_1422_26970)"/>
<path d="M166.448 119.996C184.852 106.393 196.696 85.1305 196.696 61.236C196.696 35.8416 183.32 13.419 162.904 0.00384521H74.2157C53.8037 13.419 40.4277 35.8416 40.4277 61.236C40.4277 85.1305 52.2717 106.393 70.6717 119.996H166.448V119.996Z" fill="url(#paint1_radial_1422_26970)"/>
<path d="M173.256 61.2357C173.256 89.9819 148.768 113.288 118.564 113.288C88.3601 113.288 63.8721 89.9859 63.8721 61.2357C63.8721 32.4855 88.3561 9.18298 118.56 9.18298C148.764 9.18298 173.252 32.4855 173.252 61.2357H173.256Z" fill="url(#paint2_radial_1422_26970)"/>
<path d="M41.4673 13.1726L35.0022 24.3678L47.8265 31.7724L54.2916 20.5772L41.4673 13.1726Z" fill="#FFD0A5"/>
<path d="M41.5881 55.14H26.2041V66.8593H41.5881V55.14Z" fill="#FFD0A5"/>
<path d="M197.74 110.113L203.6 99.9616L191.976 93.25L186.116 103.397L197.74 110.109V110.113Z" fill="#FFD0A5"/>
<path d="M42.6676 110.113L36.8076 99.9616L48.4316 93.25L54.2916 103.397L42.6676 110.109V110.113Z" fill="#FFD0A5"/>
<path d="M197.74 14.043L203.6 24.1903L191.976 30.9019L186.116 20.7545L197.74 14.043Z" fill="#FFD0A5"/>
<path d="M198.824 55.14H214.208V66.8593H198.824V55.14Z" fill="#FFD0A5"/>
<path fill-rule="evenodd" clip-rule="evenodd" d="M178.676 36.178C180.632 36.178 182.216 34.5941 182.216 32.6382C182.216 30.6823 180.632 29.0984 178.676 29.0984C176.72 29.0984 175.136 30.6823 175.136 32.6382C175.136 34.5941 176.72 36.178 178.676 36.178ZM178.676 40.0857C182.788 40.0857 186.124 36.75 186.124 32.6382C186.124 28.5265 182.792 25.1907 178.676 25.1907C174.56 25.1907 171.228 28.5265 171.228 32.6382C171.228 36.75 174.56 40.0857 178.676 40.0857Z" fill="url(#paint3_linear_1422_26970)"/>
<path fill-rule="evenodd" clip-rule="evenodd" d="M62.8679 36.178C64.8239 36.178 66.4079 34.5941 66.4079 32.6382C66.4079 30.6823 64.8239 29.0984 62.8679 29.0984C60.9119 29.0984 59.3279 30.6823 59.3279 32.6382C59.3279 34.5941 60.9119 36.178 62.8679 36.178ZM62.8679 40.0857C66.9799 40.0857 70.3159 36.75 70.3159 32.6382C70.3159 28.5265 66.9839 25.1907 62.8679 25.1907C58.7519 25.1907 55.4199 28.5265 55.4199 32.6382C55.4199 36.75 58.7559 40.0857 62.8679 40.0857Z" fill="url(#paint4_linear_1422_26970)"/>
<path fill-rule="evenodd" clip-rule="evenodd" d="M178.676 86.7345C180.632 86.7345 182.216 88.3184 182.216 90.2743C182.216 92.2302 180.632 93.8141 178.676 93.8141C176.72 93.8141 175.136 92.2302 175.136 90.2743C175.136 88.3184 176.72 86.7345 178.676 86.7345ZM178.676 82.8268C182.788 82.8268 186.124 86.1626 186.124 90.2743C186.124 94.3861 182.792 97.7218 178.676 97.7218C174.56 97.7218 171.228 94.3861 171.228 90.2743C171.228 86.1626 174.56 82.8268 178.676 82.8268Z" fill="url(#paint5_linear_1422_26970)"/>
<path fill-rule="evenodd" clip-rule="evenodd" d="M62.8679 86.7345C64.8239 86.7345 66.4079 88.3184 66.4079 90.2743C66.4079 92.2302 64.8239 93.8141 62.8679 93.8141C60.9119 93.8141 59.3279 92.2302 59.3279 90.2743C59.3279 88.3184 60.9119 86.7345 62.8679 86.7345ZM62.8679 82.8268C66.9799 82.8268 70.3159 86.1626 70.3159 90.2743C70.3159 94.3861 66.9839 97.7218 62.8679 97.7218C58.7519 97.7218 55.4199 94.3861 55.4199 90.2743C55.4199 86.1626 58.7559 82.8268 62.8679 82.8268Z" fill="url(#paint6_linear_1422_26970)"/>
<path d="M177.824 45.0928C175.668 45.0928 173.916 47.4246 173.916 50.3004V53.9682C173.916 55.5321 174.852 56.948 176.288 57.56L183.68 60.7158L176.288 63.8716C174.848 64.4876 173.916 65.8995 173.916 67.4634V71.1311C173.916 74.007 175.664 76.3388 177.824 76.3388C179.984 76.3388 181.732 74.007 181.732 71.1311C181.732 69.7392 181.32 68.4753 180.656 67.5394L201.268 60.7158L180.656 53.8922C181.324 52.9563 181.732 51.6924 181.732 50.3004C181.732 47.4246 179.984 45.0928 177.824 45.0928V45.0928Z" fill="url(#paint7_linear_1422_26970)"/>
<path d="M61.8444 44.8849C64.0004 44.8849 65.7524 47.2167 65.7524 50.0926V53.7603C65.7524 55.3242 64.8164 56.7401 63.3804 57.3521L55.9884 60.5079L63.3804 63.6637C64.8204 64.2797 65.7524 65.6916 65.7524 67.2555V70.9273C65.7524 73.8031 64.0044 76.1349 61.8444 76.1349C59.6844 76.1349 57.9364 73.8031 57.9364 70.9273C57.9364 69.5353 58.3444 68.2714 59.0124 67.3355L38.4004 60.5119L59.0124 53.6883C58.3444 52.7524 57.9364 51.4885 57.9364 50.0966C57.9364 47.2207 59.6844 44.8889 61.8444 44.8889V44.8849Z" fill="url(#paint8_linear_1422_26970)"/>
<path d="M173.556 6.51135L150.204 18.0746L161.992 29.8619L173.556 6.51135V6.51135Z" fill="#FFD0A6"/>
<path d="M69.0479 5.59534L92.8839 19.5105L80.5199 30.6978L69.0479 5.59534Z" fill="#FFD0A6"/>
<path d="M174.112 116.517L150.204 104.398L161.992 92.6104L174.112 116.517Z" fill="#FFD0A6"/>
<path d="M66.8838 117.324L92.0758 103.925L80.2878 92.1378L66.8878 117.328L66.8838 117.324Z" fill="#FFD0A6"/>
<path fill-rule="evenodd" clip-rule="evenodd" d="M119.224 10.0951L126.912 34.2136L123.252 35.8255L119.22 23.1823L115.188 35.8255L111.532 34.2136L119.22 10.0951H119.224Z" fill="#FFD0A6"/>
<path fill-rule="evenodd" clip-rule="evenodd" d="M119.224 113.9L111.536 89.714L115.192 88.0941L119.224 100.773L123.256 88.0941L126.912 89.714L119.224 113.9V113.9Z" fill="#FFD0A6"/>
<path fill-rule="evenodd" clip-rule="evenodd" d="M160.856 67.4876C164.288 67.4876 167.068 64.7077 167.068 61.2759C167.068 57.8442 164.288 55.0683 160.856 55.0683C157.424 55.0683 154.648 57.8482 154.648 61.2759C154.648 64.7037 157.428 67.4876 160.856 67.4876ZM160.856 74.3391C168.072 74.3391 173.92 68.4915 173.92 61.2759C173.92 54.0604 168.072 48.2128 160.856 48.2128C153.64 48.2128 147.792 54.0604 147.792 61.2759C147.792 68.4915 153.64 74.3391 160.856 74.3391Z" fill="#FFD0A6"/>
<path fill-rule="evenodd" clip-rule="evenodd" d="M79.8199 67.4876C83.2479 67.4876 86.0279 64.7077 86.0279 61.2759C86.0279 57.8442 83.2479 55.0683 79.8199 55.0683C76.3919 55.0683 73.6079 57.8482 73.6079 61.2759C73.6079 64.7037 76.3879 67.4876 79.8199 67.4876V67.4876ZM79.8199 74.3391C87.0359 74.3391 92.8839 68.4915 92.8839 61.2759C92.8839 54.0604 87.0359 48.2128 79.8199 48.2128C72.6039 48.2128 66.7559 54.0604 66.7559 61.2759C66.7559 68.4915 72.6039 74.3391 79.8199 74.3391Z" fill="#FFD0A6"/>
<path d="M147.792 61.8523C147.792 76.2274 135.548 87.8787 120.444 87.8787C105.34 87.8787 93.0957 76.2274 93.0957 61.8523C93.0957 47.4772 105.34 35.8259 120.444 35.8259C135.548 35.8259 147.792 47.4772 147.792 61.8523Z" fill="url(#paint9_radial_1422_26970)"/>
<path d="M147.792 61.8523C147.792 76.2274 135.548 87.8787 120.444 87.8787C105.34 87.8787 93.0957 76.2274 93.0957 61.8523C93.0957 47.4772 105.34 35.8259 120.444 35.8259C135.548 35.8259 147.792 47.4772 147.792 61.8523Z" fill="url(#paint10_radial_1422_26970)"/>
<path d="M147.792 61.8523C147.792 76.2274 135.548 87.8787 120.444 87.8787C105.34 87.8787 93.0957 76.2274 93.0957 61.8523C93.0957 47.4772 105.34 35.8259 120.444 35.8259C135.548 35.8259 147.792 47.4772 147.792 61.8523Z" fill="url(#paint11_radial_1422_26970)"/>
<path d="M103.964 6.59159C103.964 8.86744 106.424 10.7153 109.46 10.7153H113.332C114.984 10.7153 116.476 9.73139 117.124 8.21148L120.452 0.407974L123.78 8.21148C124.428 9.73139 125.92 10.7153 127.572 10.7153H131.444C134.48 10.7153 136.94 8.87144 136.94 6.59159C136.94 4.31173 134.48 2.46785 131.444 2.46785C129.976 2.46785 128.64 2.89982 127.652 3.60377L126.46 0H114.44L113.248 3.60377C112.26 2.89982 110.928 2.46785 109.456 2.46785C106.42 2.46785 103.96 4.31173 103.96 6.59159H103.964Z" fill="#FFD0A6"/>
<path fill-rule="evenodd" clip-rule="evenodd" d="M143.924 0.00390625C143.176 1.20783 142.744 2.62374 142.744 4.14365C142.744 8.48337 146.264 12.0032 150.604 12.0032C154.944 12.0032 158.464 8.48337 158.464 4.14365C158.464 2.62374 158.032 1.20383 157.288 0.00390625H143.924ZM150.604 7.87941C152.668 7.87941 154.34 6.20752 154.34 4.14365C154.34 2.07978 152.668 0.407881 150.604 0.407881C148.54 0.407881 146.868 2.07978 146.868 4.14365C146.868 6.20752 148.54 7.87941 150.604 7.87941V7.87941Z" fill="#FFD0A6"/>
<path fill-rule="evenodd" clip-rule="evenodd" d="M85.9798 0.00390625C85.2318 1.20783 84.7998 2.62374 84.7998 4.14365C84.7998 8.48337 88.3198 12.0032 92.6598 12.0032C96.9998 12.0032 100.52 8.48337 100.52 4.14365C100.52 2.62374 100.088 1.20383 99.3398 0.00390625H85.9758H85.9798ZM92.6598 7.87941C94.7238 7.87941 96.3958 6.20752 96.3958 4.14365C96.3958 2.07978 94.7238 0.407881 92.6598 0.407881C90.5958 0.407881 88.9238 2.07978 88.9238 4.14365C88.9238 6.20752 90.5958 7.87941 92.6598 7.87941V7.87941Z" fill="#FFD0A6"/>
<path d="M166.632 119.996C166.908 119.12 167.056 118.193 167.056 117.229C167.056 112.133 162.924 107.997 157.824 107.997C152.724 107.997 148.592 112.129 148.592 117.229C148.592 118.193 148.74 119.124 149.016 119.996H154.42C153.804 119.24 153.436 118.277 153.436 117.229C153.436 114.805 155.4 112.841 157.824 112.841C160.248 112.841 162.212 114.805 162.212 117.229C162.212 118.281 161.844 119.24 161.228 119.996H166.632Z" fill="#FFD0A6"/>
<path d="M130.168 119.996L130.876 117.86C132.036 118.688 133.604 119.196 135.328 119.196C138.892 119.196 141.784 117.028 141.784 114.352C141.784 111.677 138.892 109.509 135.328 109.509H130.78C128.84 109.509 127.088 110.665 126.328 112.449L123.108 119.992H130.168V119.996Z" fill="#FFD0A6"/>
<path d="M121.724 119.996L118.504 112.453C117.744 110.669 115.992 109.513 114.048 109.513H109.5C105.932 109.513 103.044 111.681 103.044 114.356C103.044 117.032 105.936 119.2 109.5 119.2C111.224 119.2 112.792 118.692 113.952 117.864L114.66 120H121.72L121.724 119.996Z" fill="#FFD0A6"/>
<path d="M98.8398 119.996C99.1158 119.12 99.2638 118.193 99.2638 117.229C99.2638 112.133 95.1318 107.997 90.0318 107.997C84.9318 107.997 80.7998 112.129 80.7998 117.229C80.7998 118.193 80.9478 119.124 81.2238 119.996H86.6278C86.0118 119.24 85.6438 118.277 85.6438 117.229C85.6438 114.805 87.6078 112.841 90.0318 112.841C92.4558 112.841 94.4198 114.805 94.4198 117.229C94.4198 118.281 94.0518 119.24 93.4358 119.996H98.8398V119.996Z" fill="#FFD0A6"/>
<rect width="27.3459" height="25.6169" rx="3.76708" transform="matrix(-0.816274 -0.577664 -0.577713 0.81624 163.032 29.84)" fill="#FFCEA3"/>
<rect width="27.3459" height="25.6169" rx="3.76708" transform="matrix(-0.816274 -0.577664 -0.577713 0.81624 163.032 29.84)" fill="#9B693C"/>
<rect width="27.3459" height="25.6169" rx="3.76708" transform="matrix(-0.816274 -0.577664 -0.577713 0.81624 163.032 29.84)" fill="url(#paint12_linear_1422_26970)"/>
<rect width="27.3459" height="25.6169" rx="3.76708" transform="matrix(-0.816274 -0.577664 -0.577713 0.81624 163.032 29.84)" fill="url(#paint13_linear_1422_26970)"/>
<rect width="27.3459" height="25.6169" rx="3.76708" transform="matrix(-0.816274 -0.577664 -0.577713 0.81624 163.032 29.84)" fill="url(#paint14_linear_1422_26970)"/>
<rect width="27.3459" height="25.6169" rx="3.76708" transform="matrix(-0.816274 -0.577664 -0.577713 0.81624 163.032 29.84)" fill="url(#paint15_linear_1422_26970)"/>
<rect width="28.3013" height="26.7555" rx="3.76708" transform="matrix(0.825105 0.564979 0.565028 -0.825072 74.0957 93.8475)" fill="#FFCEA3"/>
<rect width="28.3013" height="26.7555" rx="3.76708" transform="matrix(0.825105 0.564979 0.565028 -0.825072 74.0957 93.8475)" fill="#9B693C"/>
<rect width="28.3013" height="26.7555" rx="3.76708" transform="matrix(0.825105 0.564979 0.565028 -0.825072 74.0957 93.8475)" fill="url(#paint16_linear_1422_26970)"/>
<rect width="28.3013" height="26.7555" rx="3.76708" transform="matrix(0.825105 0.564979 0.565028 -0.825072 74.0957 93.8475)" fill="url(#paint17_linear_1422_26970)"/>
<rect width="28.3013" height="26.7555" rx="3.76708" transform="matrix(0.825105 0.564979 0.565028 -0.825072 74.0957 93.8475)" fill="url(#paint18_linear_1422_26970)"/>
<rect width="28.3013" height="26.7555" rx="3.76708" transform="matrix(0.825105 0.564979 0.565028 -0.825072 74.0957 93.8475)" fill="url(#paint19_linear_1422_26970)"/>
<rect width="28.3013" height="26.7555" rx="3.76708" transform="matrix(-0.825105 0.564979 -0.565028 -0.825072 162.529 95.5476)" fill="#FFCEA3"/>
<rect width="28.3013" height="26.7555" rx="3.76708" transform="matrix(-0.825105 0.564979 -0.565028 -0.825072 162.529 95.5476)" fill="#9B693C"/>
<rect width="28.3013" height="26.7555" rx="3.76708" transform="matrix(-0.825105 0.564979 -0.565028 -0.825072 162.529 95.5476)" fill="url(#paint20_linear_1422_26970)"/>
<rect width="28.3013" height="26.7555" rx="3.76708" transform="matrix(-0.825105 0.564979 -0.565028 -0.825072 162.529 95.5476)" fill="url(#paint21_linear_1422_26970)"/>
<rect width="28.3013" height="26.7555" rx="3.76708" transform="matrix(-0.825105 0.564979 -0.565028 -0.825072 162.529 95.5476)" fill="url(#paint22_linear_1422_26970)"/>
<rect width="28.3013" height="26.7555" rx="3.76708" transform="matrix(-0.825105 0.564979 -0.565028 -0.825072 162.529 95.5476)" fill="url(#paint23_linear_1422_26970)"/>
<rect width="27.3459" height="26.1436" rx="3.76708" transform="matrix(0.811673 -0.584112 0.58416 0.811638 76.0068 30.623)" fill="#FFCEA3"/>
<rect width="27.3459" height="26.1436" rx="3.76708" transform="matrix(0.811673 -0.584112 0.58416 0.811638 76.0068 30.623)" fill="#9B693C"/>
<rect width="27.3459" height="26.1436" rx="3.76708" transform="matrix(0.811673 -0.584112 0.58416 0.811638 76.0068 30.623)" fill="url(#paint24_linear_1422_26970)"/>
<rect width="27.3459" height="26.1436" rx="3.76708" transform="matrix(0.811673 -0.584112 0.58416 0.811638 76.0068 30.623)" fill="url(#paint25_linear_1422_26970)"/>
<rect width="27.3459" height="26.1436" rx="3.76708" transform="matrix(0.811673 -0.584112 0.58416 0.811638 76.0068 30.623)" fill="url(#paint26_linear_1422_26970)"/>
<rect width="27.3459" height="26.1436" rx="3.76708" transform="matrix(0.811673 -0.584112 0.58416 0.811638 76.0068 30.623)" fill="url(#paint27_linear_1422_26970)"/>
<path fill-rule="evenodd" clip-rule="evenodd" d="M120.444 37.7099C106.292 37.7099 94.9799 48.6052 94.9799 61.8524C94.9799 75.0996 106.292 85.9949 120.444 85.9949C134.596 85.9949 145.908 75.0996 145.908 61.8524C145.908 48.6052 134.596 37.7099 120.444 37.7099ZM91.2119 61.8524C91.2119 46.3534 104.388 33.9421 120.444 33.9421C136.5 33.9421 149.676 46.3494 149.676 61.8524C149.676 77.3554 136.5 89.7626 120.444 89.7626C104.388 89.7626 91.2119 77.3554 91.2119 61.8524Z" fill="#EDC29B"/>
<path fill-rule="evenodd" clip-rule="evenodd" d="M120.444 11.6794C91.1882 11.6794 67.6362 34.226 67.6362 61.8482C67.6362 89.4705 91.1922 112.017 120.444 112.017C149.696 112.017 173.252 89.4705 173.252 61.8482C173.252 34.226 149.7 11.6794 120.444 11.6794ZM63.8682 61.8482C63.8682 31.9741 89.2882 7.91162 120.444 7.91162C151.6 7.91162 177.02 31.9741 177.02 61.8482C177.02 91.7224 151.6 115.781 120.444 115.781C89.2882 115.781 63.8682 91.7224 63.8682 61.8482V61.8482Z" fill="#EDC29B"/>
<path d="M165.464 119.996C184.628 106.817 197.068 85.3785 197.068 61.2361C197.068 35.5177 182.952 12.8711 161.632 0.00390625H168.5C188.108 13.883 200.836 36.1176 200.836 61.2361C200.836 84.9146 189.528 106.025 171.808 119.996H165.468H165.464Z" fill="#EDC29B"/>
<path d="M188.232 119.996C203.14 104.469 212.22 83.8386 212.22 61.2361C212.22 37.4096 202.136 15.7789 185.764 0.00390625H191.092C206.564 16.1669 216 37.6375 216 61.2361C216 83.6507 207.484 104.145 193.376 119.996H188.232Z" fill="#EDC29B"/>
<path d="M79.9998 0.00390625H73.1318C53.5278 13.883 40.7998 36.1176 40.7998 61.2361C40.7998 84.9146 52.1078 106.025 69.8278 119.996H76.1678C57.0078 106.817 44.5638 85.3785 44.5638 61.2361C44.5678 35.5177 58.6838 12.8711 79.9998 0.00390625Z" fill="#EDC29B"/>
<path d="M54.236 0.00390625H48.908C33.44 16.1669 24 37.6375 24 61.2361C24 83.6507 32.516 104.145 46.624 119.996H51.768C36.86 104.469 27.78 83.8386 27.78 61.2361C27.78 37.4096 37.868 15.7789 54.236 0.00390625Z" fill="#EDC29B"/>
<path d="M101.576 55.3287C102.904 45.2933 110.38 43.9094 120.676 43.9094C134.96 43.9094 139.776 49.861 139.776 57.2566C139.776 59.7444 138.984 61.7443 137.864 63.2562C135.66 66.24 132.632 69.4718 132.632 73.1796C132.632 75.7514 131.968 82.831 120.672 82.831C111.636 82.831 110.152 77.4713 109.708 73.1796V71.4477C109.708 69.0038 107.296 67.076 105.192 65.832C102.812 64.4241 100.776 61.3243 101.572 55.3247L101.576 55.3287Z" fill="#FFD0A6"/>
<path d="M127.784 67.6957C127.784 63.3719 125.384 63.3719 120.588 63.3719C115.792 63.3719 113.392 64.2359 113.392 67.6957C113.392 72.0194 115.792 74.1833 120.588 74.1833C125.384 74.1833 127.784 72.0194 127.784 67.6957Z" fill="#532B10"/>
<path d="M134.98 55.4881C134.98 58.6479 132.832 61.2077 130.184 61.2077C127.536 61.2077 125.388 58.6479 125.388 55.4881C125.388 52.3283 127.536 49.7684 130.184 49.7684C132.832 49.7684 134.98 52.3283 134.98 55.4881Z" fill="url(#paint28_linear_1422_26970)"/>
<path d="M115.792 55.4881C115.792 58.6479 113.644 61.2077 110.996 61.2077C108.348 61.2077 106.2 58.6479 106.2 55.4881C106.2 52.3283 108.348 49.7684 110.996 49.7684C113.644 49.7684 115.792 52.3283 115.792 55.4881Z" fill="url(#paint29_linear_1422_26970)"/>
<path d="M115.792 78.0314V69.856H125.388V78.0314C125.388 80.6793 123.24 82.8271 120.592 82.8271C117.944 82.8271 115.796 80.6793 115.796 78.0314H115.792Z" fill="url(#paint30_linear_1422_26970)"/>
<defs>
<radialGradient id="paint0_radial_1422_26970" cx="0" cy="0" r="1" gradientUnits="userSpaceOnUse" gradientTransform="translate(120.348 59.8362) scale(92 183.988)">
<stop stop-color="#FFBF87"/>
<stop offset="0.806" stop-color="#AE7F55"/>
<stop offset="1" stop-color="#7A512D"/>
</radialGradient>
<radialGradient id="paint1_radial_1422_26970" cx="0" cy="0" r="1" gradientUnits="userSpaceOnUse" gradientTransform="translate(120.308 60.0001) scale(76 75.9952)">
<stop stop-color="#FFBF87"/>
<stop offset="0.848" stop-color="#D59E6E"/>
<stop offset="1" stop-color="#7D512B"/>
</radialGradient>
<radialGradient id="paint2_radial_1422_26970" cx="0" cy="0" r="1" gradientUnits="userSpaceOnUse" gradientTransform="translate(121.5 61.2359) rotate(90.5503) scale(52.0553 54.6947)">
<stop stop-color="#FFBF87"/>
<stop offset="0.804003" stop-color="#C79264"/>
<stop offset="1" stop-color="#5D3E23"/>
</radialGradient>
<linearGradient id="paint3_linear_1422_26970" x1="178.676" y1="25.1907" x2="178.676" y2="40.0857" gradientUnits="userSpaceOnUse">
<stop stop-color="#FFD0A6"/>
<stop offset="1" stop-color="#FFCFA4"/>
</linearGradient>
<linearGradient id="paint4_linear_1422_26970" x1="62.8679" y1="514.364" x2="62.8679" y2="514.364" gradientUnits="userSpaceOnUse">
<stop stop-color="#FFD0A6"/>
<stop offset="1" stop-color="#FFCFA4"/>
</linearGradient>
<linearGradient id="paint5_linear_1422_26970" x1="2280" y1="97.7219" x2="2284" y2="82.8307" gradientUnits="userSpaceOnUse">
<stop stop-color="#FFD0A6"/>
<stop offset="1" stop-color="#FFCFA4"/>
</linearGradient>
<linearGradient id="paint6_linear_1422_26970" x1="62.8679" y1="97.7218" x2="62.8679" y2="82.8308" gradientUnits="userSpaceOnUse">
<stop stop-color="#FFD0A6"/>
<stop offset="1" stop-color="#FFCFA4"/>
</linearGradient>
<linearGradient id="paint7_linear_1422_26970" x1="201.264" y1="60.7198" x2="173.916" y2="60.7198" gradientUnits="userSpaceOnUse">
<stop stop-color="#FFD0A6"/>
<stop offset="1" stop-color="#FFCFA4"/>
</linearGradient>
<linearGradient id="paint8_linear_1422_26970" x1="38.4044" y1="60.5119" x2="65.7524" y2="60.5119" gradientUnits="userSpaceOnUse">
<stop stop-color="#FFD0A6"/>
<stop offset="1" stop-color="#FFCFA4"/>
</linearGradient>
<radialGradient id="paint9_radial_1422_26970" cx="0" cy="0" r="1" gradientUnits="userSpaceOnUse" gradientTransform="translate(121.234 61.2816) rotate(90) scale(26.0264 27.348)">
<stop stop-color="#FFBF87"/>
<stop offset="1" stop-color="#8A5B32"/>
</radialGradient>
<radialGradient id="paint10_radial_1422_26970" cx="0" cy="0" r="1" gradientUnits="userSpaceOnUse" gradientTransform="translate(121.091 37.4082) rotate(90) scale(39.5535 74.96)">
<stop stop-color="#512A11"/>
<stop offset="0.432" stop-color="#593015" stop-opacity="0"/>
</radialGradient>
<radialGradient id="paint11_radial_1422_26970" cx="0" cy="0" r="1" gradientUnits="userSpaceOnUse" gradientTransform="translate(122.724 86.6929) rotate(-90) scale(23.5665 56.404)">
<stop stop-color="#573016"/>
<stop offset="0.673" stop-color="#5E3215" stop-opacity="0"/>
</radialGradient>
<linearGradient id="paint12_linear_1422_26970" x1="13.673" y1="4.69929e-07" x2="13.6303" y2="8.6997" gradientUnits="userSpaceOnUse">
<stop offset="0.264052" stop-color="#FFD0A6"/>
<stop offset="0.779847" stop-color="#FFD0A6" stop-opacity="0"/>
</linearGradient>
<linearGradient id="paint13_linear_1422_26970" x1="-0.485183" y1="18.4954" x2="8.20075" y2="18.1215" gradientUnits="userSpaceOnUse">
<stop offset="0.264052" stop-color="#FFD0A6"/>
<stop offset="0.670465" stop-color="#FFD0A6" stop-opacity="0"/>
</linearGradient>
<linearGradient id="paint14_linear_1422_26970" x1="28.2528" y1="14.5911" x2="19.5991" y2="14.0672" gradientUnits="userSpaceOnUse">
<stop offset="0.264052" stop-color="#FFD0A6"/>
<stop offset="0.769429" stop-color="#FFD0A6" stop-opacity="0"/>
</linearGradient>
<linearGradient id="paint15_linear_1422_26970" x1="8.3696" y1="26.508" x2="9.05691" y2="19.0518" gradientUnits="userSpaceOnUse">
<stop offset="0.264052" stop-color="#FFD0A6"/>
<stop offset="0.80589" stop-color="#FFD0A6" stop-opacity="0"/>
</linearGradient>
<linearGradient id="paint16_linear_1422_26970" x1="14.1507" y1="4.90816e-07" x2="14.1057" y2="9.08639" gradientUnits="userSpaceOnUse">
<stop offset="0.264052" stop-color="#FFD0A6"/>
<stop offset="0.779847" stop-color="#FFD0A6" stop-opacity="0"/>
</linearGradient>
<linearGradient id="paint17_linear_1422_26970" x1="-0.502134" y1="19.3175" x2="8.48756" y2="18.934" gradientUnits="userSpaceOnUse">
<stop offset="0.264052" stop-color="#FFD0A6"/>
<stop offset="0.670465" stop-color="#FFD0A6" stop-opacity="0"/>
</linearGradient>
<linearGradient id="paint18_linear_1422_26970" x1="29.2399" y1="15.2396" x2="20.2832" y2="14.7023" gradientUnits="userSpaceOnUse">
<stop offset="0.264052" stop-color="#FFD0A6"/>
<stop offset="0.769429" stop-color="#FFD0A6" stop-opacity="0"/>
</linearGradient>
<linearGradient id="paint19_linear_1422_26970" x1="8.66201" y1="27.6863" x2="9.38635" y2="19.8998" gradientUnits="userSpaceOnUse">
<stop offset="0.264052" stop-color="#FFD0A6"/>
<stop offset="0.80589" stop-color="#FFD0A6" stop-opacity="0"/>
</linearGradient>
<linearGradient id="paint20_linear_1422_26970" x1="14.1507" y1="4.90816e-07" x2="14.1057" y2="9.08639" gradientUnits="userSpaceOnUse">
<stop offset="0.264052" stop-color="#FFD0A6"/>
<stop offset="0.779847" stop-color="#FFD0A6" stop-opacity="0"/>
</linearGradient>
<linearGradient id="paint21_linear_1422_26970" x1="-0.502134" y1="19.3175" x2="8.48756" y2="18.934" gradientUnits="userSpaceOnUse">
<stop offset="0.264052" stop-color="#FFD0A6"/>
<stop offset="0.670465" stop-color="#FFD0A6" stop-opacity="0"/>
</linearGradient>
<linearGradient id="paint22_linear_1422_26970" x1="29.2399" y1="15.2396" x2="20.2832" y2="14.7023" gradientUnits="userSpaceOnUse">
<stop offset="0.264052" stop-color="#FFD0A6"/>
<stop offset="0.769429" stop-color="#FFD0A6" stop-opacity="0"/>
</linearGradient>
<linearGradient id="paint23_linear_1422_26970" x1="8.66201" y1="27.6863" x2="9.38635" y2="19.8998" gradientUnits="userSpaceOnUse">
<stop offset="0.264052" stop-color="#FFD0A6"/>
<stop offset="0.80589" stop-color="#FFD0A6" stop-opacity="0"/>
</linearGradient>
<linearGradient id="paint24_linear_1422_26970" x1="13.673" y1="4.79592e-07" x2="13.6285" y2="8.87859" gradientUnits="userSpaceOnUse">
<stop offset="0.264052" stop-color="#FFD0A6"/>
<stop offset="0.779847" stop-color="#FFD0A6" stop-opacity="0"/>
</linearGradient>
<linearGradient id="paint25_linear_1422_26970" x1="-0.485183" y1="18.8757" x2="8.20138" y2="18.5093" gradientUnits="userSpaceOnUse">
<stop offset="0.264052" stop-color="#FFD0A6"/>
<stop offset="0.670465" stop-color="#FFD0A6" stop-opacity="0"/>
</linearGradient>
<linearGradient id="paint26_linear_1422_26970" x1="28.2528" y1="14.8911" x2="19.5978" y2="14.3777" gradientUnits="userSpaceOnUse">
<stop offset="0.264052" stop-color="#FFD0A6"/>
<stop offset="0.769429" stop-color="#FFD0A6" stop-opacity="0"/>
</linearGradient>
<linearGradient id="paint27_linear_1422_26970" x1="8.3696" y1="27.0531" x2="9.08521" y2="19.4462" gradientUnits="userSpaceOnUse">
<stop offset="0.264052" stop-color="#FFD0A6"/>
<stop offset="0.80589" stop-color="#FFD0A6" stop-opacity="0"/>
</linearGradient>
<linearGradient id="paint28_linear_1422_26970" x1="130.184" y1="49.7684" x2="130.184" y2="61.2077" gradientUnits="userSpaceOnUse">
<stop offset="0.353" stop-color="#6B3A18"/>
<stop offset="1" stop-color="#C9874D"/>
</linearGradient>
<linearGradient id="paint29_linear_1422_26970" x1="110.992" y1="514.363" x2="110.992" y2="514.363" gradientUnits="userSpaceOnUse">
<stop offset="0.353" stop-color="#6B3A18"/>
<stop offset="1" stop-color="#C9874D"/>
</linearGradient>
<linearGradient id="paint30_linear_1422_26970" x1="120.588" y1="69.856" x2="120.588" y2="82.8311" gradientUnits="userSpaceOnUse">
<stop stop-color="#EDC29B"/>
<stop offset="0.503" stop-color="#6D4119"/>
</linearGradient>
</defs>
</svg>
